# xmcd
#
# Track frame offsets:
#	150
#	16219
#	31427
#	43637
#
# Disc length: 824 seconds
#
# Revision: 3
# Processed by: cddbd v1.5.2PL0 Copyright (c) Steve Scherf et al.
# Submitted via: EasyCDDAExtractor 12.0.1.1
#
DISCID=27033604
DTITLE=Ingemars - Ingemars (4 Smakebiter Fra Deres Kommende CD)
DYEAR=2008
DGENRE=Danseband
TTITLE0=Harry Frå Skogen
TTITLE1=Kongen Tå Finnskogen
TTITLE2=En Rektig Kær
TTITLE3=Det Bæste Du Veit
EXTD=
EXTT0=
EXTT1=
EXTT2=
EXTT3=
PLAYORDER=
